<mxfile host="app.diagrams.net" modified="2023-10-23T03:07:24.844Z" agent="Mozilla/5.0 (Windows NT 10.0; Win64; x64) AppleWebKit/537.36 (KHTML, like Gecko) Chrome/118.0.0.0 Safari/537.36 Edg/118.0.2088.61" etag="E5cozdTNYNVpvAjI7GP5" version="22.0.6" type="device">
  <diagram id="prtHgNgQTEPvFCAcTncT" name="Page-1">
    <mxGraphModel dx="880" dy="523" grid="1" gridSize="10" guides="1" tooltips="1" connect="1" arrows="1" fold="1" page="1" pageScale="1" pageWidth="827" pageHeight="1169" math="0" shadow="0">
      <root>
        <mxCell id="0" />
        <mxCell id="1" parent="0" />
        <mxCell id="UiA2oX6sUWAa-nReWIlf-10" value="" style="edgeStyle=orthogonalEdgeStyle;rounded=0;orthogonalLoop=1;jettySize=auto;html=1;dashed=1;" edge="1" parent="1" source="UiA2oX6sUWAa-nReWIlf-1" target="UiA2oX6sUWAa-nReWIlf-2">
          <mxGeometry relative="1" as="geometry" />
        </mxCell>
        <mxCell id="UiA2oX6sUWAa-nReWIlf-1" value="Splash Screen&lt;br&gt;&lt;span style=&quot;white-space: pre;&quot;&gt;&#x9;&lt;/span&gt;&lt;span style=&quot;white-space: pre;&quot;&gt;&#x9;&lt;/span&gt;" style="rounded=0;whiteSpace=wrap;html=1;" vertex="1" parent="1">
          <mxGeometry x="160" y="160" width="120" height="60" as="geometry" />
        </mxCell>
        <mxCell id="UiA2oX6sUWAa-nReWIlf-11" value="" style="edgeStyle=orthogonalEdgeStyle;rounded=0;orthogonalLoop=1;jettySize=auto;html=1;dashed=1;" edge="1" parent="1" source="UiA2oX6sUWAa-nReWIlf-2" target="UiA2oX6sUWAa-nReWIlf-3">
          <mxGeometry relative="1" as="geometry" />
        </mxCell>
        <mxCell id="UiA2oX6sUWAa-nReWIlf-2" value="Home Screen" style="rounded=0;whiteSpace=wrap;html=1;" vertex="1" parent="1">
          <mxGeometry x="160" y="310" width="120" height="60" as="geometry" />
        </mxCell>
        <mxCell id="UiA2oX6sUWAa-nReWIlf-12" value="" style="edgeStyle=orthogonalEdgeStyle;rounded=0;orthogonalLoop=1;jettySize=auto;html=1;dashed=1;" edge="1" parent="1" source="UiA2oX6sUWAa-nReWIlf-3" target="UiA2oX6sUWAa-nReWIlf-4">
          <mxGeometry relative="1" as="geometry" />
        </mxCell>
        <mxCell id="UiA2oX6sUWAa-nReWIlf-3" value="Cart Screen" style="rounded=0;whiteSpace=wrap;html=1;" vertex="1" parent="1">
          <mxGeometry x="160" y="460" width="120" height="60" as="geometry" />
        </mxCell>
        <mxCell id="UiA2oX6sUWAa-nReWIlf-13" value="" style="edgeStyle=orthogonalEdgeStyle;rounded=0;orthogonalLoop=1;jettySize=auto;html=1;dashed=1;" edge="1" parent="1" source="UiA2oX6sUWAa-nReWIlf-4" target="UiA2oX6sUWAa-nReWIlf-5">
          <mxGeometry relative="1" as="geometry" />
        </mxCell>
        <mxCell id="UiA2oX6sUWAa-nReWIlf-17" style="rounded=0;orthogonalLoop=1;jettySize=auto;html=1;exitX=1;exitY=1;exitDx=0;exitDy=0;entryX=0;entryY=0;entryDx=0;entryDy=0;" edge="1" parent="1" source="UiA2oX6sUWAa-nReWIlf-4" target="UiA2oX6sUWAa-nReWIlf-8">
          <mxGeometry relative="1" as="geometry" />
        </mxCell>
        <mxCell id="UiA2oX6sUWAa-nReWIlf-4" value="Delivery Form" style="rounded=0;whiteSpace=wrap;html=1;" vertex="1" parent="1">
          <mxGeometry x="340" y="460" width="120" height="60" as="geometry" />
        </mxCell>
        <mxCell id="UiA2oX6sUWAa-nReWIlf-14" value="" style="edgeStyle=orthogonalEdgeStyle;rounded=0;orthogonalLoop=1;jettySize=auto;html=1;dashed=1;" edge="1" parent="1" source="UiA2oX6sUWAa-nReWIlf-5" target="UiA2oX6sUWAa-nReWIlf-6">
          <mxGeometry relative="1" as="geometry" />
        </mxCell>
        <mxCell id="UiA2oX6sUWAa-nReWIlf-5" value="Invoice Screen" style="rounded=0;whiteSpace=wrap;html=1;" vertex="1" parent="1">
          <mxGeometry x="530" y="460" width="120" height="60" as="geometry" />
        </mxCell>
        <mxCell id="UiA2oX6sUWAa-nReWIlf-19" value="" style="edgeStyle=orthogonalEdgeStyle;rounded=0;orthogonalLoop=1;jettySize=auto;html=1;dashed=1;" edge="1" parent="1" source="UiA2oX6sUWAa-nReWIlf-6" target="UiA2oX6sUWAa-nReWIlf-7">
          <mxGeometry relative="1" as="geometry" />
        </mxCell>
        <mxCell id="UiA2oX6sUWAa-nReWIlf-6" value="Payment Screen" style="rounded=0;whiteSpace=wrap;html=1;" vertex="1" parent="1">
          <mxGeometry x="730" y="460" width="120" height="60" as="geometry" />
        </mxCell>
        <mxCell id="UiA2oX6sUWAa-nReWIlf-20" value="" style="edgeStyle=orthogonalEdgeStyle;rounded=0;orthogonalLoop=1;jettySize=auto;html=1;dashed=1;" edge="1" parent="1" source="UiA2oX6sUWAa-nReWIlf-7" target="UiA2oX6sUWAa-nReWIlf-2">
          <mxGeometry relative="1" as="geometry">
            <mxPoint x="650" y="340" as="targetPoint" />
          </mxGeometry>
        </mxCell>
        <mxCell id="UiA2oX6sUWAa-nReWIlf-7" value="Result Screen" style="rounded=0;whiteSpace=wrap;html=1;" vertex="1" parent="1">
          <mxGeometry x="730" y="310" width="120" height="60" as="geometry" />
        </mxCell>
        <mxCell id="UiA2oX6sUWAa-nReWIlf-8" value="Error Screen" style="rounded=0;whiteSpace=wrap;html=1;" vertex="1" parent="1">
          <mxGeometry x="530" y="600" width="120" height="60" as="geometry" />
        </mxCell>
        <mxCell id="UiA2oX6sUWAa-nReWIlf-18" style="rounded=0;orthogonalLoop=1;jettySize=auto;html=1;exitX=0;exitY=1;exitDx=0;exitDy=0;entryX=1.017;entryY=0.15;entryDx=0;entryDy=0;entryPerimeter=0;" edge="1" parent="1" source="UiA2oX6sUWAa-nReWIlf-6" target="UiA2oX6sUWAa-nReWIlf-8">
          <mxGeometry relative="1" as="geometry" />
        </mxCell>
      </root>
    </mxGraphModel>
  </diagram>
</mxfile>
